<svg xmlns="http://www.w3.org/2000/svg" xmlns:xlink="http://www.w3.org/1999/xlink" width="500" zoomAndPan="magnify" viewBox="0 0 375 374.999991" height="500" preserveAspectRatio="xMidYMid meet" version="1.0"><defs><clipPath id="af2a04caed"><path d="M 177 137.257812 L 185 137.257812 L 185 148 L 177 148 Z M 177 137.257812 " clip-rule="nonzero"/></clipPath><clipPath id="850be8f007"><path d="M 52 137.257812 L 325 137.257812 L 325 225 L 52 225 Z M 52 137.257812 " clip-rule="nonzero"/></clipPath><clipPath id="038df46b22"><path d="M 176.441406 164.421875 L 221.152344 164.421875 L 221.152344 174.519531 L 176.441406 174.519531 Z M 176.441406 164.421875 " clip-rule="nonzero"/></clipPath><clipPath id="7407b48996"><path d="M 0.441406 0.421875 L 45.152344 0.421875 L 45.152344 10.519531 L 0.441406 10.519531 Z M 0.441406 0.421875 " clip-rule="nonzero"/></clipPath><clipPath id="01013e487b"><rect x="0" width="46" y="0" height="11"/></clipPath></defs><g clip-path="url(#af2a04caed)"><path fill="#ffffff" d="M 181.050781 137.25 L 177.628906 147.035156 L 180.734375 147.050781 L 184.167969 137.25 L 181.050781 137.25 " fill-opacity="1" fill-rule="nonzero"/></g><path fill="#000000" d="M 84.046875 219.46875 C 84.046875 237.824219 111.835938 237.835938 111.835938 219.46875 C 111.835938 201.117188 84.046875 201.089844 84.046875 219.46875 " fill-opacity="1" fill-rule="nonzero"/><path fill="#000000" d="M 245.546875 219.46875 C 245.546875 237.824219 273.335938 237.835938 273.335938 219.46875 C 273.335938 201.117188 245.546875 201.089844 245.546875 219.46875 " fill-opacity="1" fill-rule="nonzero"/><g clip-path="url(#850be8f007)"><path fill="#000000" d="M 322.371094 203.921875 C 309.890625 171.039062 315.539062 175.480469 272.703125 175.480469 C 247.417969 150.082031 246.238281 147.035156 238.238281 147.035156 L 196.824219 147.035156 L 192.660156 137.25 L 175.742188 137.25 L 171.816406 147.035156 C 154.457031 147.035156 158.492188 145.902344 135.046875 175.480469 C 134.59375 175.480469 134.226562 175.480469 133.902344 175.480469 C 132.945312 175.480469 132.53125 175.480469 132.453125 175.480469 C 128.882812 175.480469 117.433594 175.480469 85.027344 175.480469 C 71.480469 175.480469 60.511719 186.460938 60.511719 199.996094 C 50.359375 204.273438 51.617188 204.863281 56.09375 214.714844 L 75.71875 214.714844 C 81.105469 189.542969 117.8125 191.53125 120.515625 217.015625 C 120.605469 217.796875 120.566406 217.382812 120.605469 218 C 120.730469 220.074219 120.589844 222.097656 120.203125 224.023438 L 237.179688 224.023438 C 236.777344 222.097656 236.652344 220.074219 236.777344 218 C 236.816406 217.34375 236.777344 217.808594 236.851562 217.015625 C 239.570312 191.519531 276.277344 189.542969 281.660156 214.714844 L 324.824219 214.714844 L 324.824219 203.921875 L 322.371094 203.921875 " fill-opacity="1" fill-rule="nonzero"/></g><path fill="#ffffff" d="M 223.492188 159.84375 L 165.136719 159.84375 L 151.652344 177.128906 L 240.789062 177.128906 L 223.492188 159.84375 " fill-opacity="1" fill-rule="nonzero"/><g clip-path="url(#038df46b22)"><g transform="matrix(1, 0, 0, 1, 176, 164)"><g clip-path="url(#01013e487b)"><g clip-path="url(#7407b48996)"><path fill="#ffffff" d="M 0.441406 0.421875 L 45.164062 0.421875 L 45.164062 10.519531 L 0.441406 10.519531 Z M 0.441406 0.421875 " fill-opacity="1" fill-rule="nonzero"/></g></g></g></g></svg>